<svg fill="none" height="35" viewBox="0 0 116 35" width="116" xmlns="http://www.w3.org/2000/svg" xmlns:xlink="http://www.w3.org/1999/xlink"><clipPath id="a"><path d="m0 0h116v35h-116z"/></clipPath><g clip-path="url(#a)" clip-rule="evenodd" fill-rule="evenodd"><path d="m71.9641 27.3711c-6.7409 4.9748-16.5115 7.6289-24.9238 7.6289-11.7954 0-22.4144-4.368-30.448-11.6329-.6311-.5713-.0656-1.3498.6918-.905 8.6698 5.0506 19.3897 8.089 30.4631 8.089 7.4681 0 15.6834-1.547 23.2374-4.7573 1.1411-.4854 2.0955.7482.9795 1.5773z" fill="#f90"/><path d="m74.7665 24.1608c-.8584-1.1021-5.6957-.5208-7.8669-.2629-.6615.0809-.7625-.4955-.1667-.91 3.8527-2.7149 10.1746-1.9313 10.9118-1.0213.7372.9151-.1919 7.2599-3.8123 10.2882-.5554.4651-1.0856.2174-.8382-.3994.813-2.0323 2.6358-6.5874 1.7723-7.6946z" fill="#f90"/><g fill="#000"><path d="m67.0511 3.82211v-2.63902c0-.399396.3029-.667343.6665-.667343h11.8004c.3787 0 .6817.273003.6817.667343v2.25985c-.005.37917-.3232.87462-.8887 1.65824l-6.1148 8.74112c2.2722-.0556 4.6707.2831 6.7308 1.4459.4646.2629.5908.6471.6262 1.0263v2.816c0 .3842-.4242.8342-.8685.6016-3.6306-1.906-8.4527-2.1132-12.467.0202-.409.2225-.8382-.2224-.8382-.6066v-2.6745c0-.4297.005-1.1627.4342-1.8149l7.0843-10.1719h-6.1653c-.3787 0-.6816-.26795-.6816-.66229z"/><path d="m24.0049 20.2881h-3.5902c-.3433-.0253-.616-.2831-.6412-.6117v-18.44795c0-.36906.308-.662287.6917-.662287h3.3478c.3484.015156.6261.283113.6514.616787v2.41152h.0656c.8736-2.33063 2.5146-3.41759 4.7263-3.41759 2.2469 0 3.6507 1.08696 4.6606 3.41759.8685-2.33063 2.8428-3.41759 4.9585-3.41759 1.5047 0 3.1508.62184 4.1556 2.01719 1.1362 1.55207.9039 3.80687.9039 5.78361l-.0051 11.64312c0 .369-.308.6673-.6917.6673h-3.5851c-.3585-.0253-.6463-.3135-.6463-.6673v-9.7776c0-.77856.0707-2.71991-.101-3.45803-.2676-1.23862-1.0705-1.58746-2.1107-1.58746-.8685 0-1.7774.58139-2.146 1.51162-.3686.93024-.3332 2.48736-.3332 3.53387v9.7776c0 .369-.3081.6673-.6918.6673h-3.5851c-.3635-.0253-.6463-.3135-.6463-.6673l-.0051-9.7776c0-2.05763.3384-5.08594-2.2116-5.08594-2.5802 0-2.4793 2.95247-2.4793 5.08594v9.7776c0 .369-.308.6673-.6917.6673"/><path d="m90.3591.17688c5.3271 0 8.2104 4.58038 8.2104 10.40442 0 5.6269-3.1862 10.091-8.2104 10.091-5.2312 0-8.079-4.5804-8.079-10.2882 0-5.74312 2.8832-10.20722 8.079-10.20722zm.0303 3.76643c-2.6459 0-2.8125 3.6097-2.8125 5.85945 0 2.25484-.0353 7.06774 2.7822 7.06774 2.7822 0 2.9135-3.8827 2.9135-6.2487 0-1.55716-.0656-3.41763-.5352-4.89386-.404-1.28413-1.2068-1.78463-2.348-1.78463z"/><path d="m105.477 20.2881h-3.575c-.358-.0253-.646-.3135-.646-.6673l-.005-18.45302c.03-.338727.328-.601617.691-.601617h3.328c.313.015156.571.227502.641.515677v2.82102h.066c1.005-2.52274 2.414-3.72598 4.893-3.72598 1.611 0 3.181.581396 4.191 2.17391.939 1.47624.939 3.95854.939 5.74317v11.61274c-.04.3236-.338.5814-.692.5814h-3.6c-.328-.0253-.601-.268-.636-.5814v-10.02022c0-2.01719.232-4.96967-2.247-4.96967-.874 0-1.677.58646-2.076 1.47624-.504 1.12741-.57 2.24975-.57 3.49343v9.93432c-.005.369-.318.6673-.702.6673"/><path d="m57.644 11.4762c0 1.4004.0354 2.5683-.6715 3.812-.5706 1.0111-1.4795 1.6329-2.4843 1.6329-1.3785 0-2.1864-1.0515-2.1864-2.6036 0-3.0637 2.7418-3.6198 5.3422-3.6198zm3.6204 8.7614c-.2373.2123-.5806.2275-.8482.0859-1.1917-.9909-1.4088-1.4509-2.0602-2.3963-1.9693 2.0121-3.368 2.6137-5.9179 2.6137-3.0246 0-5.3726-1.8655-5.3726-5.6016 0-2.9171 1.5754-4.9039 3.8275-5.87459 1.949-.85946 4.6707-1.01112 6.751-1.24874v-.46511c0-.8544.0657-1.86553-.4393-2.60364-.4342-.66229-1.2724-.93529-2.0147-.93529-1.3684 0-2.5853.70273-2.8832 2.15874-.0606.32356-.2979.64207-.6261.65723l-3.4791-.37411c-.2928-.06572-.621-.30334-.5352-.75329.7978-4.22648 4.6152-5.5005 8.0286-5.5005 1.747 0 4.0294.465117 5.4079 1.78968 1.7471 1.63297 1.5804 3.81193 1.5804 6.18301v5.60161c0 1.6835.6968 2.4216 1.3533 3.3317.2272.3235.2777.7128-.0152.9555-.7322.6117-2.0349 1.7492-2.7519 2.3862z"/><path d="m10.5785 11.4765c0 1.4004.0353 2.5682-.67157 3.8119-.57058 1.0111-1.47443 1.633-2.48431 1.633-1.37848 0-2.18134-1.0516-2.18134-2.6037 0-3.0637 2.74183-3.6198 5.33722-3.6198zm3.6204 8.7613c-.2373.2124-.5807.2275-.8483.086-1.1916-.9909-1.4037-1.451-2.0601-2.3964-1.9693 2.0122-3.36293 2.6138-5.91794 2.6138-3.01954 0-5.37256-1.8655-5.37256-5.6016 0-2.9171 1.58046-4.904 3.82745-5.87465 1.94907-.85946 4.6707-1.01112 6.75105-1.24873v-.46512c0-.8544.0656-1.86552-.4342-2.60364-.43935-.66228-1.27755-.93529-2.01476-.93529-1.36839 0-2.59034.70273-2.88826 2.15875-.06059.32356-.29791.64206-.62107.65723l-3.48409-.37412c-.29287-.06572-.616032-.30334-.535242-.75328.802852-4.22649 4.615152-5.50050586 8.028552-5.50050586 1.74707 0 4.02947.46511686 5.40787 1.78968586 1.7471 1.63296 1.5805 3.81193 1.5805 6.18301v5.60166c0 1.6835.6968 2.4216 1.3533 3.3316.2322.3236.2827.7128-.0102.9555-.7321.6117-2.0349 1.7493-2.7519 2.3863z"/></g></g></svg>