<svg fill="none" height="28" viewBox="0 0 70 28" width="70" xmlns="http://www.w3.org/2000/svg"><g fill="#000"><path d="m1.03264 1.99524h16.87776v4.87281h-11.28859v4.97605h9.68579v4.8691h-9.68579v4.7434h11.44709v4.8728h-17.03626z"/><path d="m32.1223 13.5047h9.1047v8.7939c-.6223.739-1.3299 1.3969-2.1221 1.975-.7924.5783-1.6378 1.0636-2.5358 1.457s-1.829.6904-2.7914.8935c-.9626.2022-1.9194.3035-2.87.3035-1.2092 0-2.3718-.1522-3.487-.456-1.1154-.3035-2.1576-.7302-3.1261-1.2784-.9685-.5484-1.8486-1.2104-2.6402-1.9852-.7916-.7746-1.4718-1.636-2.0409-2.5841-.5691-.9478-1.0089-1.9701-1.3196-3.067s-.466-2.2413-.466-3.4332c0-1.1799.1553-2.3155.466-3.4067.3107-1.09058.7508-2.10981 1.3196-3.05763.5691-.94782 1.2493-1.80917 2.0409-2.58404s1.6717-1.43965 2.6402-1.99406c.9685-.55442 2.0104-.98367 3.1261-1.28776 1.1152-.30351 2.2775-.45599 3.487-.45599 1.9136 0 3.6952.36895 5.3448 1.10656 1.6493.73789 3.0727 1.73776 4.2705 2.99878l-3.9626 3.43372c-.6813-.82295-1.5057-1.47265-2.4742-1.95026-.9685-.47733-2.028-.71599-3.1785-.71599-1.0332 0-2.0079.20282-2.9235.60818-.9156.40535-1.7139.96261-2.3953 1.67177-.6813.70945-1.2179 1.54722-1.6115 2.51262-.3935.966-.5898 2.0092-.5898 3.1297 0 1.121.1963 2.1641.5898 3.1296.3936.966.9305 1.8035 1.6115 2.5126.6814.7095 1.4797 1.2667 2.3953 1.6724.9156.4056 1.89.6076 2.9235.6076.8804 0 1.7282-.1448 2.5448-.4352.8159-.2902 1.5527-.7015 2.2099-1.2352v-2.7541h-3.5572z"/><path d="m42.7859 14.1235c0-1.1822.1553-2.3169.4666-3.4039.3107-1.08689.751-2.10526 1.3206-3.05479.5691-.94924 1.2499-1.80916 2.0423-2.57977.7925-.77032 1.6729-1.43311 2.6411-1.98837.968-.55527 2.0101-.98225 3.125-1.28121 1.1152-.2984 2.2772-.44803 3.4864-.44803 1.197 0 2.3533.14934 3.4685.44803 1.1152.29896 2.1593.72594 3.134 1.28121.9744.55526 1.8607 1.21834 2.6587 1.98837.7981.77061 1.4819 1.63053 2.0515 2.57977.5691.94953 1.0094 1.9679 1.3207 3.05479.3107 1.087.4666 2.2217.4666 3.4039 0 1.1828-.1559 2.3172-.4666 3.4041-.3113 1.0869-.7516 2.1053-1.3207 3.0546-.5696.9495-1.2534 1.8123-2.0515 2.5885-.798.7763-1.6843 1.4397-2.6587 1.989s-2.0188.9763-3.134 1.2809c-1.1152.3047-2.2715.4569-3.4685.4569-1.2092 0-2.3712-.1522-3.4864-.4569-1.1152-.3046-2.157-.7313-3.125-1.2809-.9685-.5493-1.8486-1.2127-2.6411-1.989-.7924-.7762-1.4732-1.639-2.0423-2.5885-.5696-.9493-1.0099-1.9674-1.3206-3.0546-.3113-1.0866-.4666-2.2213-.4666-3.4041zm5.5597.0091c0 1.1242.1968 2.1679.5901 3.1302.3936.9626.9307 1.7969 1.6121 2.5024.6813.7054 1.4796 1.2584 2.3955 1.6592.9156.4008 1.8906.6008 2.9244.6008 1.0567 0 2.0431-.2 2.9593-.6008s1.7117-.9538 2.3869-1.6592c.6751-.7055 1.2098-1.5395 1.6034-2.5024.3935-.9623.59-2.0057.59-3.1302 0-1.1239-.1968-2.1673-.59-3.1302-.3936-.9623-.928-1.79638-1.6034-2.50184-.6752-.70546-1.471-1.25845-2.3869-1.65926-.9162-.4008-1.9026-.60106-2.9593-.60106-1.0338 0-2.0088.20026-2.9244.60106-.9162.40081-1.7145.9538-2.3955 1.65926-.6814.70546-1.2185 1.53954-1.6121 2.50184-.3933.9626-.5901 2.0063-.5901 3.1302z"/></g></svg>