<svg fill="none" height="144" viewBox="0 0 192 144" width="192" xmlns="http://www.w3.org/2000/svg" xmlns:xlink="http://www.w3.org/1999/xlink"><clipPath id="a"><path d="m0 .391235h191.3v143.27h-191.3z"/></clipPath><g clip-path="url(#a)"><path d="m16.1 142.958h158" stroke="#333c42" stroke-linecap="round" stroke-linejoin="round" stroke-miterlimit="10" stroke-width="1.4263"/><path d="m180.6 142.958h10" stroke="#333c42" stroke-linecap="round" stroke-linejoin="round" stroke-miterlimit="10" stroke-width="1.4263"/><path d="m.700012 142.958h8.999998" stroke="#333c42" stroke-linecap="round" stroke-linejoin="round" stroke-miterlimit="10" stroke-width="1.4263"/><path d="m36.9 142.456h83.5c5.6 0 10.3-4.618 10.3-10.341v-120.6799c0-5.62234-4.6-10.34111-10.3-10.34111h-83.5c-5.6 0-10.3 4.61837-10.3 10.34111v120.6799c0 5.723 4.6 10.341 10.3 10.341z" style="fill:#b5ecf7;stroke:#333c42;stroke-width:1.5;stroke-miterlimit:10;stroke-linecap:round;stroke-linejoin:round"/><path d="m40.3 135.629h76.7c3.6 0 6.6-3.012 6.6-6.626v-114.2547c0-3.6144-3-6.62635-6.6-6.62635h-76.7c-3.6 0-6.6 3.01195-6.6 6.62635v114.2547c0 3.714 2.9 6.626 6.6 6.626z" style="fill:#fff;stroke:#333c42;stroke-width:1.5;stroke-miterlimit:10;stroke-linecap:round;stroke-linejoin:round"/><path d="m75.7 67.9598h-21.8v21.8871h21.8z" stroke="#333c42" stroke-linecap="round" stroke-linejoin="round" stroke-miterlimit="10"/><path d="m72.7 76.5942s-2.3-1.506-4.8 1.6064c-2.6 3.1124-3.2 2.8112-6.5 1.6064s-4.4 2.008-4.4 2.008v4.518h15.7c.1.1004 0-9.7388 0-9.7388z" fill="#6cd9f0"/><path d="m60.9 76.6946c.8 0 1.5-.7028 1.5-1.506s-.7-1.506-1.5-1.506-1.5.7028-1.5 1.506c0 .9036.7 1.506 1.5 1.506z" fill="#6cd9f0"/><path d="m48.4 118.36h33.4c1.9 0 3.4-1.506 3.4-3.413v-2.611h-40.1v2.611c0 1.907 1.5 3.413 3.3 3.413z" fill="#d4eef5"/><path d="m45.7 50.9924h65.7c.7 0 1.2-.502 1.2-1.2048v-3.2128h-68.1v3.2128c0 .7028.6 1.2048 1.2 1.2048z" fill="#d4eef5"/><path d="m47.1 51.1932h63.1c1.4 0 2.5-1.1044 2.5-2.51v-14.0559c0-1.4056-1.1-2.51-2.5-2.51h-63.1c-1.4 0-2.5 1.1044-2.5 2.51v14.0559c-.1 1.4056 1.1 2.51 2.5 2.51z" stroke="#333c42" stroke-linecap="round" stroke-linejoin="round" stroke-miterlimit="10"/><path d="m34.5 16.7563h88.1v-2.008c0-3.2127-2.6-5.82313-5.8-5.82313h-76.5c-3.2 0-5.8 2.61043-5.8 5.82313z" fill="#d4eef5"/><path d="m53.3 98.5816h23.1" stroke="#333c42" stroke-linecap="round" stroke-linejoin="round" stroke-miterlimit="10"/><path d="m53.3 104.505h23.1" stroke="#333c42" stroke-linecap="round" stroke-linejoin="round" stroke-miterlimit="10"/><path d="m51.9 38.1413c.7732 0 1.4-.6293 1.4-1.4056s-.6268-1.4056-1.4-1.4056-1.4.6293-1.4 1.4056.6268 1.4056 1.4 1.4056z" fill="#6cd9f0"/><path d="m51.9 43.9645c.7732 0 1.4-.6293 1.4-1.4056s-.6268-1.4056-1.4-1.4056-1.4.6293-1.4 1.4056.6268 1.4056 1.4 1.4056z" fill="#b5ecf7"/><path d="m48.4 118.36h33.4c1.9 0 3.4-1.506 3.4-3.413v-51.4048c0-1.9075-1.5-3.4135-3.4-3.4135h-33.4c-1.9 0-3.4 1.506-3.4 3.4135v51.4048c.1 1.907 1.6 3.413 3.4 3.413z" stroke="#333c42" stroke-linecap="round" stroke-linejoin="round" stroke-miterlimit="10" stroke-width="1.0939"/><path d="m158.5 111.734h-59.1c-3.4 0-6.2-2.61-6.2-5.924v-56.3236c0-3.2128 2.8-5.9235 6.2-5.9235h59.2c3.4 0 6.2 2.6103 6.2 5.9235v13.3531 5.6224 37.3481c-.1 3.314-2.9 5.924-6.3 5.924z" style="fill:#fff;stroke:#333c42;stroke-width:1.3777;stroke-miterlimit:10;stroke-linecap:round;stroke-linejoin:round"/><path d="m155.3 93.3608h-51.8v7.5302h51.8z" fill="#b5ecf7"/><g stroke="#333c42" stroke-linecap="round" stroke-linejoin="round" stroke-miterlimit="10"><path d="m103.8 54.6068v45.9832h50.6" stroke-width="1.6797"/><path d="m117.9 56.3136v44.2764" stroke-dasharray="1 2"/><path d="m133.1 56.3136v44.2764" stroke-dasharray="1 2"/><path d="m148.4 56.3136v44.2764" stroke-dasharray="1 2"/><path d="m117.9 78.1002c1.823 0 3.3-1.4833 3.3-3.3132 0-1.8298-1.477-3.3131-3.3-3.3131s-3.3 1.4833-3.3 3.3131c0 1.8299 1.477 3.3132 3.3 3.3132z" fill="#6cd9f0" stroke-width="1.2598"/><path d="m133.1 85.2286c1.823 0 3.3-1.4834 3.3-3.3132s-1.477-3.3132-3.3-3.3132-3.3 1.4834-3.3 3.3132 1.477 3.3132 3.3 3.3132z" fill="#6cd9f0" stroke-width="1.2598"/><path d="m148.4 61.3331c1.823 0 3.3-1.4833 3.3-3.3131 0-1.8299-1.477-3.3132-3.3-3.3132s-3.3 1.4833-3.3 3.3132c0 1.8298 1.477 3.3131 3.3 3.3131z" fill="#6cd9f0" stroke-width="1.2598"/><path d="m103.8 92.5577 10.8-17.7707" stroke-width="1.2598"/><path d="m121.2 74.787 8.6 8.0319" stroke-width="1.2598"/><path d="m146.3 60.6307-9.8 21.2847" stroke-width="1.2598"/></g></g></svg>