<svg fill="none" height="143" viewBox="0 0 192 143" width="192" xmlns="http://www.w3.org/2000/svg" xmlns:xlink="http://www.w3.org/1999/xlink"><clipPath id="a"><path d="m0 .395264h191.3v141.764h-191.3z"/></clipPath><g clip-path="url(#a)"><path d="m162.2 28.6074h-18.4v7.9316h17.6v74.998h-131.4v-74.998h16.5.7.3v-7.9316h-18.4c-3.5 0-6.3 2.8112-6.3 6.3252v78.3114c0 3.514 2.8 6.325 6.3 6.325h133c3.5 0 6.3-2.811 6.3-6.325v-78.3114c0-3.514-2.8-6.3252-6.2-6.3252z" fill="#b5ecf7"/><path d="m119.9 133.826h-48.5l2-4.619h44.5z" fill="#d3f4fa"/><path d="m161.3 105.714h-131.3v5.823h131.3z" fill="#d3f4fa"/><path d="m132.9 138.444h-74.6v2.41h74.6z" fill="#d3f4fa"/><path d="m47.6 89.7505v.9036c0 4.0159 3.7 7.3291 8.3 7.3291h79.4c4.6 0 8.3-3.3132 8.3-7.3291v-.9036" fill="#d3f4fa"/><path d="m47.6 20.2743v-11.04394c0-4.41757 3.7-8.13234 8.3-8.13234h79.4c4.6 0 8.3 3.61437 8.3 8.13234v11.04394" fill="#ecfafd"/><path d="m143.8 28.6074h18.4c3.5 0 6.3 2.8112 6.3 6.3252v78.3114c0 3.514-2.8 6.325-6.3 6.325h-133c-3.5 0-6.3-2.811-6.3-6.325v-78.3114c0-3.514 2.8-6.3252 6.3-6.3252h18.4" stroke="#333c42" stroke-linecap="round" stroke-linejoin="round" stroke-miterlimit="10" stroke-width="1.4263"/><path d="m143.8 36.5389h17.5v74.9981h-131.3v-74.9981h16.5.7" stroke="#333c42" stroke-linecap="round" stroke-linejoin="round" stroke-miterlimit="10" stroke-width="1.4263"/><path d="m131.5 141.456h-71.7c-.8 0-1.5-.703-1.5-1.506v-4.016c0-.803.7-1.506 1.5-1.506h71.7c.8 0 1.5.703 1.5 1.506v4.117c0 .702-.7 1.405-1.5 1.405z" stroke="#333c42" stroke-linecap="round" stroke-linejoin="round" stroke-miterlimit="10" stroke-width="1.4263"/><path d="m70.5 134.428s6.1-5.622 2.7-14.759" stroke="#333c42" stroke-linecap="round" stroke-linejoin="round" stroke-miterlimit="10" stroke-width="1.4263"/><path d="m120.9 134.428s-6.1-5.622-2.7-14.759" stroke="#333c42" stroke-linecap="round" stroke-linejoin="round" stroke-miterlimit="10" stroke-width="1.4263"/><path d="m135.4 97.9832h-79.5c-4.6 0-8.3-3.7148-8.3-8.3331v-79.9178c0-4.61836 3.7-8.33313 8.3-8.33313h79.6c4.6 0 8.3 3.71477 8.3 8.33313v18.8751 7.9315 53.1112c0 4.5179-3.8 8.3331-8.4 8.3331z" stroke="#333c42" stroke-linecap="round" stroke-linejoin="round" stroke-miterlimit="10" stroke-width="1.9017"/><path d="m95.6 31.4186c-13 0-23.5 10.5419-23.5 23.5938s10.5 23.5938 23.5 23.5938 23.5-10.5419 23.5-23.5938-10.5-23.5938-23.5-23.5938zm0 34.9389c-6.3 0-11.4-5.1204-11.4-11.4455 0-6.3252 5.1-11.3451 11.4-11.3451s11.4 5.1203 11.4 11.4455c0 6.3251-5.1 11.3451-11.4 11.3451z" fill="#d3f4fa"/><path d="m83.9 80.1122c-.3-.1004-.6-.3012-.9-.4016" stroke="#333c42" stroke-linecap="round" stroke-linejoin="round" stroke-width="1.5"/><path d="m79.6 77.6022c-1.5-1.1044-2.9-2.3092-4.2-3.7148-10.4-11.2447-9.7-28.8145 1.6-39.1556 3.7-3.514 8.2-5.7228 12.8-6.7268" stroke="#333c42" stroke-dasharray="1.99 1.99" stroke-linecap="round" stroke-linejoin="round" stroke-width="1.5"/><path d="m91.7 27.5026c.3 0 .6-.1 1-.1" stroke="#333c42" stroke-linecap="round" stroke-linejoin="round" stroke-width="1.5"/><path d="m101.9 82.0198c4.5-1.004 8.8-3.2128 12.5-6.6264 11.2-10.4415 11.9-27.911 1.6-39.1557-4.9-5.3211-11.5-8.3331-18.2-8.8351" stroke="#333c42" stroke-linecap="round" stroke-linejoin="round" stroke-miterlimit="10" stroke-width="1.5388"/><path d="m103.6 79.2086-1.9 2.9115 3.2 1.2048" stroke="#333c42" stroke-linecap="round" stroke-linejoin="round" stroke-miterlimit="10" stroke-width="1.5388"/><path d="m84.2 54.912c0-6.3252 5.1-11.3451 11.4-11.3451s11.3 5.1203 11.4 11.3451h12.1c0-12.9515-10.5-23.4934-23.5-23.4934-12.9 0-23.4 10.5419-23.5 23.4934z" fill="#b5ecf7"/><path d="m79.1 38.2457 7.6 9.6383c2.1-2.6103 5.3-4.3171 8.9-4.3171v-12.1483c-6.4 0-12.3 2.6104-16.5 6.8271z" fill="#d3f4fa"/><path d="m112.1 38.2457-7.6 9.6383c-2.1-2.6103-5.3-4.3171-8.9-4.3171v-12.1483c6.4 0 12.3 2.6104 16.5 6.8271z" fill="#b5ecf7"/><path d="m107 54.912h12.1c0-6.526-2.7-12.4495-7-16.6663l-7.6 9.6383c1.5 1.9076 2.5 4.4176 2.5 7.028z" fill="#6cd9f0"/><path d="m95.6 51.3981c-1.9 0-3.5 1.6064-3.5 3.5139 0 1.9076 1.6 3.514 3.5 3.514s3.5-1.6064 3.5-3.514c0-1.9075-1.5-3.5139-3.5-3.5139zm0 5.7227c-1.2 0-2.2-1.004-2.2-2.2088 0-1.2047 1-2.2087 2.2-2.2087s2.2 1.004 2.2 2.2087c0 1.3052-1 2.2088-2.2 2.2088z" fill="#333c42"/><path d="m97.2 52.5024 11.4-4.4176-10.2 6.9276" fill="#333c42"/><g stroke="#333c42"><path d="m97.2 52.5024 11.4-4.4176-10.2 6.9276" stroke-linecap="round" stroke-linejoin="round" stroke-miterlimit="10" stroke-width=".8732"/><path d="m48 15.9572h95.3" stroke-linecap="round" stroke-linejoin="round" stroke-miterlimit="10" stroke-width="1.9017"/><path d="m72.6 10.4352c.9941 0 1.8-.80913 1.8-1.80721 0-.99809-.8059-1.80719-1.8-1.80719s-1.8.8091-1.8 1.80719c0 .99808.8059 1.80721 1.8 1.80721z" stroke-linecap="round" stroke-linejoin="round" stroke-miterlimit="10" stroke-width="1.1664"/><path d="m65.6 10.4352c.9941 0 1.8-.80913 1.8-1.80721 0-.99809-.8059-1.80719-1.8-1.80719s-1.8.8091-1.8 1.80719c0 .99808.8059 1.80721 1.8 1.80721z" stroke-linecap="round" stroke-linejoin="round" stroke-miterlimit="10" stroke-width="1.1664"/><path d="m58.6 10.4352c.9941 0 1.8-.80913 1.8-1.80721 0-.99809-.8059-1.80719-1.8-1.80719s-1.8.8091-1.8 1.80719c0 .99808.8059 1.80721 1.8 1.80721z" stroke-linecap="round" stroke-linejoin="round" stroke-miterlimit="10" stroke-width="1.1664"/><path d="m16.1 141.456h162" stroke-linecap="round" stroke-linejoin="round" stroke-miterlimit="10" stroke-width="1.4263"/><path d="m184.6 141.456h6" stroke-linecap="round" stroke-linejoin="round" stroke-miterlimit="10" stroke-width="1.4263"/><path d="m.700001 141.456h10.999999" stroke-linecap="round" stroke-linejoin="round" stroke-miterlimit="10" stroke-width="1.4263"/></g></g></svg>