<svg fill="none" height="142" viewBox="0 0 192 142" width="192" xmlns="http://www.w3.org/2000/svg" xmlns:xlink="http://www.w3.org/1999/xlink"><clipPath id="a"><path d="m0 .5h191.3v141.2h-191.3z"/></clipPath><g clip-path="url(#a)"><path d="m174.7 131.6h-158.1c-5.1 0-9.3-4.2-9.3-9.3v-.2h176.7v.2c0 5.1-4.2 9.3-9.3 9.3z" style="fill:#ecfafd;stroke:#333c42;stroke-width:1.5;stroke-miterlimit:10;stroke-linecap:round;stroke-linejoin:round"/><path d="m110.8 126.8h-30.3c-2.6 0-4.7-2.1-4.7-4.7h39.8c-.1 2.6-2.2 4.7-4.8 4.7z" style="fill:#fff;stroke:#333c42;stroke-width:1.5;stroke-miterlimit:10;stroke-linecap:round;stroke-linejoin:round"/><path d="m162.2 31.6h-18.4v7.9h17.6v74.7h-131.4v-74.7h16.5.7.3v-7.9h-18.4c-3.5 0-6.3 2.8-6.3 6.3v78c0 3.5 2.8 6.3 6.3 6.3h133c3.5 0 6.3-2.8 6.3-6.3v-78c0-3.5-2.8-6.3-6.2-6.3z" fill="#b5ecf7"/><path d="m161.3 108.4h-131.3v5.8h131.3z" fill="#d3f4fa"/><path d="m47.6 20.3v-10.99999c0-4.4 3.7-8.1 8.3-8.1h79.4c4.6 0 8.3 3.6 8.3 8.1v10.99999" fill="#ecfafd"/><path d="m143.3 39.4v-10.8 7.6 51.9c0 4.4-3.8 8-8.4 8h-79.6c-4.6 0-8.3-3.6-8.3-8l.1-48.7" fill="#fff"/><path d="m143.8 31.6h18.4c3.5 0 6.3 2.8 6.3 6.3v78c0 3.5-2.8 6.3-6.3 6.3h-133c-3.5 0-6.3-2.8-6.3-6.3v-78c0-3.5 2.8-6.3 6.3-6.3h18.4" stroke="#333c42" stroke-linecap="round" stroke-linejoin="round" stroke-miterlimit="10" stroke-width="1.4263"/><path d="m143.8 39.5h17.5v74.7h-131.3v-74.7h16.5.7" fill="#fff"/><path d="m143.8 39.5h17.5v74.7h-131.3v-74.7h16.5.7" stroke="#333c42" stroke-linecap="round" stroke-linejoin="round" stroke-miterlimit="10" stroke-width="1.4263"/><path d="m77.6 99.4c0-9.9 8.1-18 18-18s18 8 18 18h19.1c0-20.5-16.6-37.1-37.1-37.1s-37.1 16.6-37.1 37.1z" fill="#b5ecf7"/><path d="m71.9 71 10.4 12.7.1 1.7c3.3-4.1 7.5-3.9 13.2-3.9v-19.2c-10.2 0-17 2.1-23.7 8.7z" fill="#d3f4fa"/><path d="m121.7 73.1-12.1 15.2c-3.3-4.1-8.3-6.7-14-6.7v-19.3c10.2 0 19.4 4.1 26.1 10.8z" fill="#b5ecf7"/><path d="m113.6 99.4h19.1c0-10.3-6.6-21.7-13.4-28.4l-8.7 9.3c2.6 3.1 3 14.9 3 19.1z" fill="#6cd9f0"/><path d="m66.5 99.4c0-16.1 13-30.1 29.1-30.1s29.1 14 29.1 30.1" fill="#fff"/><path d="m59.6 97.3c0-19.9 16.1-36 36-36s36 16.1 36 36" stroke="#333c42" stroke-linecap="round" stroke-linejoin="round" stroke-miterlimit="10" stroke-width="1.862"/><path d="m119.2 82c3.2 4.6 5 10.2 5 16.2" stroke="#333c42" stroke-linecap="round" stroke-linejoin="round" stroke-miterlimit="10" stroke-width=".931"/><path d="m102.1 70.3c5.4 1.3 10.3 4.1 14 7.9" stroke="#333c42" stroke-linecap="round" stroke-linejoin="round" stroke-miterlimit="10" stroke-width=".931"/><path d="m74.9 78.4c5.2-5.5 12.6-8.9 20.7-8.9" stroke="#333c42" stroke-linecap="round" stroke-linejoin="round" stroke-miterlimit="10" stroke-width=".931"/><path d="m67 98.2c0-3.8.8-7.5 2.1-10.8" stroke="#333c42" stroke-linecap="round" stroke-linejoin="round" stroke-miterlimit="10" stroke-width=".931"/><path d="m95.6 61.4v8.2" stroke="#333c42" stroke-linecap="round" stroke-linejoin="round" stroke-miterlimit="10" stroke-width=".931"/><path d="m83 63.8 3.1 7.2" stroke="#333c42" stroke-linecap="round" stroke-linejoin="round" stroke-miterlimit="10" stroke-width=".931"/><path d="m72.3 70.2 5.1 5.9" stroke="#333c42" stroke-linecap="round" stroke-linejoin="round" stroke-miterlimit="10" stroke-width=".931"/><path d="m64.5 79.8 6.3 3.9" stroke="#333c42" stroke-linecap="round" stroke-linejoin="round" stroke-miterlimit="10" stroke-width=".931"/><path d="m60.5 91.6 6.7 1.3" stroke="#333c42" stroke-linecap="round" stroke-linejoin="round" stroke-miterlimit="10" stroke-width=".931"/><path d="m108.3 63.8-3.1 7.2" stroke="#333c42" stroke-linecap="round" stroke-linejoin="round" stroke-miterlimit="10" stroke-width=".931"/><path d="m119 70.2-5.1 5.9" stroke="#333c42" stroke-linecap="round" stroke-linejoin="round" stroke-miterlimit="10" stroke-width=".931"/><path d="m126.8 79.8-6.3 3.9" stroke="#333c42" stroke-linecap="round" stroke-linejoin="round" stroke-miterlimit="10" stroke-width=".931"/><path d="m130.8 91.7-6.7 1.2" stroke="#333c42" stroke-linecap="round" stroke-linejoin="round" stroke-miterlimit="10" stroke-width=".931"/><path d="m97.8 91.7 12.1-8.4-8.4 12.1" fill="#333c42"/><g stroke="#333c42" stroke-linecap="round" stroke-linejoin="round" stroke-miterlimit="10"><path d="m97.8 91.7 12.1-8.4-8.4 12.1" stroke-width=".813"/><path d="m89.8 97.3c0-3.2 2.6-5.8 5.8-5.8s5.8 2.6 5.8 5.8" stroke-width="2.7931"/><path d="m135.4 98.7h-79.6c-4.6 0-8.3-3.7-8.3-8.3l.1-80.6c0-4.6 3.7-8.3 8.3-8.3h79.6c4.6 0 8.3 3.7 8.3 8.3v18.8 7.9 53.9c0 4.5-3.9 8.3-8.4 8.3z" stroke-width="1.9017"/><path d="m48 16h95.3" stroke-width="1.9017"/><path d="m69.6 10.5c.9941 0 1.8-.80586 1.8-1.79998 0-.99411-.8059-1.8-1.8-1.8s-1.8.80589-1.8 1.8c0 .99412.8059 1.79998 1.8 1.79998z" stroke-width="1.1664"/><path d="m62.6 10.5c.9941 0 1.8-.80586 1.8-1.79998 0-.99411-.8059-1.8-1.8-1.8s-1.8.80589-1.8 1.8c0 .99412.8059 1.79998 1.8 1.79998z" stroke-width="1.1664"/><path d="m55.6 10.5c.9941 0 1.8-.80586 1.8-1.79998 0-.99411-.8059-1.8-1.8-1.8s-1.8.80589-1.8 1.8c0 .99412.8059 1.79998 1.8 1.79998z" stroke-width="1.1664"/><path d="m61.9 29.5v17.3" stroke-width="1.5"/><path d="m78.9 29.5v17.3" stroke-width="1.5"/><path d="m95.9 29.5v17.3" stroke-width="1.5"/><path d="m65.4 38.3h-6.9c-.3 0-.6-.3-.6-.6v-2.3c0-.3.3-.6.6-.6h6.9c.3 0 .6.3.6.6v2.3c0 .4-.3.6-.6.6z" fill="#6cd9f0"/><path d="m82.4 41.8h-6.9c-.3 0-.6-.3-.6-.6v-2.3c0-.3.3-.6.6-.6h6.9c.3 0 .6.3.6.6v2.3c0 .4-.3.6-.6.6z" fill="#6cd9f0"/><path d="m99.4 36.2h-6.9c-.3 0-.6-.3-.6-.6v-2.3c0-.3.3-.6.6-.6h6.9c.3 0 .6.3.6.6v2.3c0 .4-.3.6-.6.6z" fill="#6cd9f0"/><path d="m112.7 29.5v17.3" stroke-width="1.5"/><path d="m129.7 29.8v17.3" stroke-width="1.5"/><path d="m116.2 40.1h-6.9c-.3 0-.6-.3-.6-.6v-2.3c0-.3.3-.6.6-.6h6.9c.3 0 .6.3.6.6v2.3c0 .3-.3.6-.6.6z" fill="#6cd9f0"/><path d="m133.1 42.6h-6.9c-.3 0-.6-.3-.6-.6v-2.3c0-.3.3-.6.6-.6h6.9c.3 0 .6.3.6.6v2.3c0 .3-.3.6-.6.6z" fill="#6cd9f0"/><path d="m16.1 141h162" stroke-width="1.4263"/><path d="m184.6 141h6" stroke-width="1.4263"/><path d="m.700001 141h10.999999" stroke-width="1.4263"/></g></g></svg>