<svg fill="none" height="144" viewBox="0 0 192 144" width="192" xmlns="http://www.w3.org/2000/svg" xmlns:xlink="http://www.w3.org/1999/xlink"><clipPath id="a"><path d="m0 .395264h191.3v143.47h-191.3z"/></clipPath><g clip-path="url(#a)"><g stroke="#333c42" stroke-linecap="round" stroke-linejoin="round" stroke-miterlimit="10"><path d="m12.1 142.862h166" stroke-width="1.4263"/><path d="m184.6 142.862h6" stroke-width="1.4263"/><path d="m.700012 142.862h5.999998" stroke-width="1.4263"/><path d="m85.3 143.163h64.9c6.6 0 12-5.422 12-12.048v-117.8686c0-6.62636-5.4-12.04791-12-12.04791h-64.9c-6.6 0-12 5.42155-12 12.04791v117.8686c0 6.626 5.4 12.048 12 12.048z" fill="#b5ecf7" stroke-width="1.5"/><path d="m86.4 136.336h62.6c3.3 0 6-2.711 6-6.024v-116.2624c0-3.3132-2.7-6.02397-6-6.02397h-62.6c-3.3 0-6 2.71077-6 6.02397v116.2624c0 3.313 2.7 6.024 6 6.024z" fill="#fff" stroke-width="1.5"/><path d="m89 35.1334h56.6c1.2 0 2.2-1.004 2.2-2.2088v-12.3491c0-1.2048-1-2.2088-2.2-2.2088h-56.6c-1.2 0-2.2 1.004-2.2 2.2088v12.3491c0 1.2048 1 2.2088 2.2 2.2088z"/><path d="m99.2 23.7882h23"/><path d="m99.2 29.7118h23"/></g><path d="m134.8 25.1939c.773 0 1.4-.6293 1.4-1.4056s-.627-1.4056-1.4-1.4056-1.4.6293-1.4 1.4056.627 1.4056 1.4 1.4056z" fill="#6cd9f0"/><path d="m134.8 31.017c.773 0 1.4-.6293 1.4-1.4056s-.627-1.4056-1.4-1.4056-1.4.6293-1.4 1.4056.627 1.4056 1.4 1.4056z" fill="#b5ecf7"/><path d="m89 58.0245h56.6c1.2 0 2.2-1.004 2.2-2.2088v-12.3491c0-1.2048-1-2.2088-2.2-2.2088h-56.6c-1.2 0-2.2 1.004-2.2 2.2088v12.3491c0 1.2048 1 2.2088 2.2 2.2088z" stroke="#333c42" stroke-linecap="round" stroke-linejoin="round" stroke-miterlimit="10"/><path d="m99.2 46.579h23" stroke="#333c42" stroke-linecap="round" stroke-linejoin="round" stroke-miterlimit="10"/><path d="m99.2 52.6029h23" stroke="#333c42" stroke-linecap="round" stroke-linejoin="round" stroke-miterlimit="10"/><path d="m134.8 47.9845c.773 0 1.4-.6293 1.4-1.4056s-.627-1.4056-1.4-1.4056-1.4.6293-1.4 1.4056.627 1.4056 1.4 1.4056z" fill="#6cd9f0"/><path d="m134.8 53.8078c.773 0 1.4-.6293 1.4-1.4056s-.627-1.4056-1.4-1.4056-1.4.6293-1.4 1.4056.627 1.4056 1.4 1.4056z" fill="#b5ecf7"/><path d="m89 80.815h56.6c1.2 0 2.2-1.004 2.2-2.2088v-12.3491c0-1.2048-1-2.2088-2.2-2.2088h-56.6c-1.2 0-2.2 1.004-2.2 2.2088v12.3491c0 1.2048 1 2.2088 2.2 2.2088z" stroke="#333c42" stroke-linecap="round" stroke-linejoin="round" stroke-miterlimit="10"/><path d="m99.2 69.4698h23" stroke="#333c42" stroke-linecap="round" stroke-linejoin="round" stroke-miterlimit="10"/><path d="m99.2 75.3934h23" stroke="#333c42" stroke-linecap="round" stroke-linejoin="round" stroke-miterlimit="10"/><path d="m134.8 70.8755c.773 0 1.4-.6293 1.4-1.4056s-.627-1.4056-1.4-1.4056-1.4.6293-1.4 1.4056.627 1.4056 1.4 1.4056z" fill="#6cd9f0"/><path d="m134.8 76.6986c.773 0 1.4-.6293 1.4-1.4056 0-.7762-.627-1.4055-1.4-1.4055s-1.4.6293-1.4 1.4055c0 .7763.627 1.4056 1.4 1.4056z" fill="#b5ecf7"/><path d="m89 103.606h56.6c1.2 0 2.2-1.004 2.2-2.209v-12.3492c0-1.2048-1-2.2088-2.2-2.2088h-56.6c-1.2 0-2.2 1.004-2.2 2.2088v12.3492c0 1.205 1 2.209 2.2 2.209z" stroke="#333c42" stroke-linecap="round" stroke-linejoin="round" stroke-miterlimit="10"/><path d="m99.2 92.2606h23" stroke="#333c42" stroke-linecap="round" stroke-linejoin="round" stroke-miterlimit="10"/><path d="m99.2 98.1841h23" stroke="#333c42" stroke-linecap="round" stroke-linejoin="round" stroke-miterlimit="10"/><path d="m134.8 93.6662c.773 0 1.4-.6293 1.4-1.4056s-.627-1.4056-1.4-1.4056-1.4.6293-1.4 1.4056.627 1.4056 1.4 1.4056z" fill="#6cd9f0"/><path d="m134.8 99.4893c.773 0 1.4-.6293 1.4-1.4056s-.627-1.4056-1.4-1.4056-1.4.6293-1.4 1.4056.627 1.4056 1.4 1.4056z" fill="#b5ecf7"/><path d="m89 126.497h56.6c1.2 0 2.2-1.004 2.2-2.209v-12.349c0-1.205-1-2.209-2.2-2.209h-56.6c-1.2 0-2.2 1.004-2.2 2.209v12.349c0 1.205 1 2.209 2.2 2.209z" stroke="#333c42" stroke-linecap="round" stroke-linejoin="round" stroke-miterlimit="10"/><path d="m99.2 115.051h23" stroke="#333c42" stroke-linecap="round" stroke-linejoin="round" stroke-miterlimit="10"/><path d="m99.2 121.075h23" stroke="#333c42" stroke-linecap="round" stroke-linejoin="round" stroke-miterlimit="10"/><path d="m134.8 116.457c.773 0 1.4-.63 1.4-1.406s-.627-1.405-1.4-1.405-1.4.629-1.4 1.405.627 1.406 1.4 1.406z" fill="#6cd9f0"/><path d="m134.8 122.28c.773 0 1.4-.629 1.4-1.406 0-.776-.627-1.405-1.4-1.405s-1.4.629-1.4 1.405c0 .777.627 1.406 1.4 1.406z" fill="#b5ecf7"/><path d="m29.2 35.6354v77.2066c0 4.016 3.1 7.33 6.9 7.33h66.4c3.8 0 6.9-3.314 6.9-7.33v-76.2026" fill="#fff"/><path d="m29.2 113.646v.702c0 3.314 3.1 6.024 6.9 6.024h66.4c3.8 0 6.9-2.71 6.9-6.024v-.803" fill="#d3f4fa"/><path d="m29.2 42.7638v-11.0439c0-4.4176 3.1-8.1324 6.9-8.1324h66.4c3.8 0 6.9 3.6144 6.9 8.1324v11.0439" fill="#ecfafd"/><path d="m102.6 121.075h-66.5c-3.8 0-7-3.815-7-8.433v-80.4201c0-4.6184 3.1-8.4336 7-8.4336h66.5c3.8 0 7 3.8152 7 8.4336v19.0758 7.9315 53.4128c0 4.618-3.2 8.433-7 8.433z" stroke="#333c42" stroke-linecap="round" stroke-linejoin="round" stroke-miterlimit="10" stroke-width="1.7441"/><path d="m29.5 38.4465h79.7" stroke="#333c42" stroke-linecap="round" stroke-linejoin="round" stroke-miterlimit="10" stroke-width="1.7385"/><path d="m52.3 32.9247c.9941 0 1.8-.8091 1.8-1.8072s-.8059-1.8072-1.8-1.8072-1.8.8091-1.8 1.8072.8059 1.8072 1.8 1.8072z" stroke="#333c42" stroke-linecap="round" stroke-linejoin="round" stroke-miterlimit="10" stroke-width="1.1664"/><path d="m45.3 32.9247c.9941 0 1.8-.8091 1.8-1.8072s-.8059-1.8072-1.8-1.8072-1.8.8091-1.8 1.8072.8059 1.8072 1.8 1.8072z" stroke="#333c42" stroke-linecap="round" stroke-linejoin="round" stroke-miterlimit="10" stroke-width="1.1664"/><path d="m38.3 32.9247c.9941 0 1.8-.8091 1.8-1.8072s-.8059-1.8072-1.8-1.8072-1.8.8091-1.8 1.8072.8059 1.8072 1.8 1.8072z" stroke="#333c42" stroke-linecap="round" stroke-linejoin="round" stroke-miterlimit="10" stroke-width="1.1664"/><path d="m94.9 52.3016h-51.1v51.3044h51.1z" stroke="#333c42" stroke-dasharray="1 2" stroke-linecap="round" stroke-linejoin="round" stroke-miterlimit="10"/><path d="m87.7 72.6827s-5.4-3.514-11.3 3.8152c-6 7.3291-7.5 6.6263-15.2 3.8152-7.7-2.7108-10.3 4.7187-10.3 4.7187v10.6423h36.8c.3 0 0-22.9914 0-22.9914z" fill="#6cd9f0"/><path d="m60.1 72.8835c1.9 0 3.5-1.506 3.5-3.5139 0-1.9076-1.5-3.514-3.5-3.514s-3.5 1.506-3.5 3.514c.1 2.0079 1.6 3.5139 3.5 3.5139z" fill="#6cd9f0"/></g></svg>