<svg fill="none" height="142" viewBox="0 0 192 142" width="192" xmlns="http://www.w3.org/2000/svg" xmlns:xlink="http://www.w3.org/1999/xlink"><clipPath id="a"><path d="m0 .5h191.3v141.2h-191.3z"/></clipPath><g clip-path="url(#a)"><path d="m12.1 141h166" stroke="#333c42" stroke-linecap="round" stroke-linejoin="round" stroke-miterlimit="10" stroke-width="1.4263"/><path d="m184.6 141h6" stroke="#333c42" stroke-linecap="round" stroke-linejoin="round" stroke-miterlimit="10" stroke-width="1.4263"/><path d="m.700012 141h5.999998" stroke="#333c42" stroke-linecap="round" stroke-linejoin="round" stroke-miterlimit="10" stroke-width="1.4263"/><path d="m35.3 140.6h63.9c6.5 0 11.8-5.3 11.8-11.8v-115.7c0-6.50001-5.3-11.80001-11.8-11.80001h-63.9c-6.5 0-11.8 5.3-11.8 11.80001v115.7c0 6.5 5.3 11.8 11.8 11.8z" style="fill:#b5ecf7;stroke:#333c42;stroke-width:1.5;stroke-miterlimit:10;stroke-linecap:round;stroke-linejoin:round"/><path d="m36.4 133.9h61.7c3.3 0 5.9-2.7 5.9-5.9v-114.1c0-3.3-2.7-5.9-5.9-5.9h-61.7c-3.3 0-5.9 2.7-5.9 5.9v114.1c0 3.3 2.6 5.9 5.9 5.9z" style="fill:#fff;stroke:#333c42;stroke-width:1.5;stroke-miterlimit:10;stroke-linecap:round;stroke-linejoin:round"/><path d="m118.9 125.6c26.675 0 48.3-21.625 48.3-48.3 0-26.6754-21.625-48.3-48.3-48.3-26.6753 0-48.3 21.6246-48.3 48.3 0 26.675 21.6247 48.3 48.3 48.3z" fill="#ecfafd"/><g fill="#d3f4fa"><path d="m92.6 37s.4 2.9 1 3.7c.5.8 1 1.5 1 1.8s-.6 1.4-.6 1.4-.9 1.9-.9 2.1-.1 2.9-.1 3-.1 2.9 0 3.1.8 1.3.9 1.5c.1.1 1.1 2.2 1.6 2.3s1.2.1 1.2.1l1.6.9s2.4-6.8 2.8-7 1.9-.7 2.2-1.1 1.1-2.3 1.6-2.5 4.6-1.5 4.8-1.7c.2-.1 1.2-1 1.4-1.3s1.4-1.8 1.4-1.8.7-5 .7-5.1c.1-.1 1.9-2.8 1.9-3s0-4 0-4-10.6-.1-22.5 7.6z"/><path d="m85.4 43.1-.5 2.1 3.3 3.2-.7 1.1h-1.2l-.1 1.3s-.3 2-.4 2.2-.9 1.5-.9 1.5l-6.3-3s3.8-6.4 6.8-8.4z"/><path d="m78.8 54.6-.2 2.9-.4 1.2.4 1.1.5 1.1v1s-.6.5-.9.8c-.2.2-.3.6-.3.9v2l-.6.8s-1-.7-1.1-1-.4-.6-.4-1.2 0-1.5 0-1.5l-2.2-.7s-3.9 12.3-1.9 21.6l3.4.4.6 1.2.7 1.1s.8.8.8 0-.2-1.8-.2-2.1-.1-1.6.2-2.1c.4-.4 1.8-2.2 1.8-2.2s2.9-5.2 3.1-5.6.8-1.1 1.2-1.2c.4-.2 1.9-.5 2.1-.6s2.2-.8 2.2-.8-.8-2.4-.7-2.6.7-1.3.7-1.3l.8-.1s-.2.8 0 .9c.2.2 0 .8 0 .8l1.2.8 1.6.3.9-.7-1.8-3.6s.2-3.3 0-3.5-.9-1.1-1-1.4c-.1-.4-3.1-3.6-3.1-3.6l-2.1-.8-1.1.4-.2-.9-1.8-2.1z"/><path d="m78.8 102.6v-.9s1.2-1.3 1.2-1.5c.1-.2-.1-3.3 0-3.5.1-.1 1.7-1 1.7-1l6.3.7 4.2 2.4 2.3 1.6.7 2.2 5.7 1.6 1.6 1.5 1.5.9v3.3l-.4 2.1-1.8 3.2-3.6 1.2.2 1.1-1 2.2c0-.1-13.7-7-18.6-17.1z"/><path d="m72.7 89.2 1.3.2-.4 2.3c-.1 0-.8-1.3-.9-2.5z"/><path d="m73.8 92.7s2.4.4 2.4.6v1.3.4l2.7 1.6h-3.6c.1 0-1.2-3-1.5-3.9z"/><path d="m76.4 88.4.5 1.2 5.1 3.1 2-1.3z"/><path d="m157.2 96.4-3.4.8s-3.6-2.4-3.7-2.6-3.3-8.9-3.3-8.9l1.2-.7 4.3 6.6 1.2 4.1 9.7-5.4-1.2-2.9 3.7 1.2s4.3-12.4-1.1-27.5c0 0-5.3-13.2-8.8-15l-7.2 4.8-1.1-3 2.6.4 1.2-2.2-7.9-5.3-5 1.5.7 1.9 1 1.5-.7.7-.4 1.1-.1 1 .2 2.7.6 4.7 1.2-.1.7.6.8-.1.6.8-3.2 1.2-1 4-5.1.8-1.3-.6-.3-1.3s-1.5-.5-1.5-.3c.1.3.4 2.6.4 2.6l-2.2.5-2.3 3.4-4 1.1 1.9 2.6s-.4 1.1-.4 1.3c0 .1-1.1.7-1.2.7s-2.4.4-2.5.6-.4 1.5-.4 1.5v1.4 2.2l.9.7 1 .1s1.8-.5 1.8-.7c0-.1 3.4-4.1 3.4-4.1h1.5l2.8-1.5.8 1.6 1.1 1.5-.2 1s1.2 1.4 1.3 1.2 1.2-1.3 1.2-1.3 0-.7 0-.9c-.1-.2-1.5-3.4-1.5-3.4l4.3 2.1 1.5 3.6 1.8.4.8-1.7 1.2 1.6 3.4.1.5 1.2v1.3l-.7 1.3-1.8.6-9-.8-2.7-.4-1.2-.2.2-1.1-5-1.2-1.7.3-2.3.4-1.3.2s-2 4.2-2.8 4.4-1.8.7-1.8.7l-2.9 4.4.4 1.6v1.1l.4 1.1-.2.9 1.8 2.9 3 2.1.9 1.3h2.5l4.3-1.2 4 1.8-.3 2.3 2.1 2.4-.7 6.4s4.1 8.9 4.3 8.8 7.7-3 9.6-5.1c0 0 .2-2.7.4-2.8s1.9-.9 2-1.1 1-.4 1.1-.6c0-.2 0-2.8 0-2.8v-3.6l1.6-1.1 3-2.4 1.7-1.2z"/><path d="m115.3 47.4-2.3 1.4-1.8-.7.3 1.6.3.8-.1.9 1.8.7 3.5-2.4z"/><path d="m123 58.3-.3.9 1.4.7-.7 1 2.8 4.8-2.1 1.2-2.1-1 .7-1.6-1.8-5.3z"/><path d="m120.9 62.6.8 1.7-.4 1-2.1.7v-2.3z"/><path d="m135.8 47.4-3.2 3.4-1.9 1.8s-1.5.7-1.4.9-.3 1.9-.3 1.9l.9.4-.6 1.6.5 1.3s2.6-.8 2.6-.5.5 1.7.6 1.9 1.2.9 1.2.9l1.6-.3.9-3.1.3-1.4-1.1-3.6.4-2.5z"/></g><path d="m97.5 33.2c2.3-3.3 5.3-5.5 8.7-6.4 13.8-3.5 30.6 15.8 37.6 43.2s1.5 52.5-12.2 56c-3 .8-6.1.5-9.2-.8" stroke="#333c42" stroke-dasharray="1 2" stroke-linecap="round" stroke-linejoin="round" stroke-miterlimit="10"/><path d="m160.7 52.8c3.3 1.8 5.6 4.2 6.6 7.2 3.9 12-14.8 28.8-41.7 37.5s-51.9 6-55.8-6c-.9-2.9-.6-6 .9-9.2" stroke="#333c42" stroke-dasharray="1 2" stroke-linecap="round" stroke-linejoin="round" stroke-miterlimit="10"/><path d="m118.9 125.4c26.675 0 48.3-21.625 48.3-48.3 0-26.6754-21.625-48.3-48.3-48.3-26.6753 0-48.3 21.6246-48.3 48.3 0 26.675 21.6247 48.3 48.3 48.3z" stroke="#333c42" stroke-linecap="round" stroke-linejoin="round" stroke-miterlimit="10" stroke-width="2"/><path d="m104.7 122.9c-14.8-9.2-20-33.6-11.3-57.7 6.7-18.8 20-32.4 33.7-36.4" stroke="#333c42" stroke-dasharray="1 2" stroke-linecap="round" stroke-linejoin="round" stroke-miterlimit="10"/><path d="m62.1 27.8h-21.8v21.8h21.8z" stroke="#333c42" stroke-linecap="round" stroke-linejoin="round" stroke-miterlimit="10"/><path d="m59 36.4s-2.3-1.5-4.8 1.6c-2.6 3.1-3.2 2.8-6.5 1.6s-4.4 2-4.4 2v4.5h15.7c.2.1 0-9.7 0-9.7z" fill="#6cd9f0"/><path d="m47.2 36.5c.8 0 1.5-.7 1.5-1.5s-.7-1.5-1.5-1.5-1.5.7-1.5 1.5c.1.9.7 1.5 1.5 1.5z" fill="#6cd9f0"/><path d="m62.1 58.4h-21.8v21.8h21.8z" stroke="#333c42" stroke-linecap="round" stroke-linejoin="round" stroke-miterlimit="10"/><path d="m59 67s-2.3-1.5-4.8 1.6c-2.6 3.1-3.2 2.8-6.5 1.6s-4.4 2-4.4 2v4.5h15.7c.2.1 0-9.7 0-9.7z" fill="#6cd9f0"/><path d="m47.2 67.1c.8 0 1.5-.7 1.5-1.5s-.7-1.5-1.5-1.5-1.5.7-1.5 1.5c.1.9.7 1.5 1.5 1.5z" fill="#6cd9f0"/><path d="m62.1 88.6h-21.8v21.8h21.8z" stroke="#333c42" stroke-linecap="round" stroke-linejoin="round" stroke-miterlimit="10"/><path d="m59 97.3s-2.3-1.5-4.8 1.6c-2.6 3.1-3.2 2.8-6.5 1.6s-4.4 2-4.4 2v4.5h15.7c.2.1 0-9.7 0-9.7z" fill="#6cd9f0"/><path d="m47.2 97.4c.8 0 1.5-.7 1.5-1.5s-.7-1.5-1.5-1.5-1.5.7-1.5 1.5c.1.8.7 1.5 1.5 1.5z" fill="#6cd9f0"/><path d="m68.7 32.6h23" stroke="#333c42" stroke-linecap="round" stroke-linejoin="round" stroke-miterlimit="10"/><path d="m68.7 39.5h10" stroke="#333c42" stroke-linecap="round" stroke-linejoin="round" stroke-miterlimit="10"/><path d="m87.4 57.5c1.8225 0 3.3-1.4775 3.3-3.3s-1.4775-3.3-3.3-3.3-3.3 1.4775-3.3 3.3 1.4775 3.3 3.3 3.3z" style="fill:#6cd9f0;stroke:#333c42;stroke-width:1.2598;stroke-miterlimit:10;stroke-linecap:round;stroke-linejoin:round"/><path d="m87.4 57.9v7.9" stroke="#333c42" stroke-linecap="round" stroke-linejoin="round" stroke-miterlimit="10" stroke-width="1.2598"/><path d="m132.9 80.9c1.823 0 3.3-1.4775 3.3-3.3 0-1.8226-1.477-3.3-3.3-3.3s-3.3 1.4774-3.3 3.3c0 1.8225 1.477 3.3 3.3 3.3z" style="fill:#6cd9f0;stroke:#333c42;stroke-width:1.2598;stroke-miterlimit:10;stroke-linecap:round;stroke-linejoin:round"/><path d="m132.9 81.4v7.9" stroke="#333c42" stroke-linecap="round" stroke-linejoin="round" stroke-miterlimit="10" stroke-width="1.2598"/><path d="m146 39.2c1.823 0 3.3-1.4775 3.3-3.3 0-1.8226-1.477-3.3-3.3-3.3s-3.3 1.4774-3.3 3.3c0 1.8225 1.477 3.3 3.3 3.3z" style="fill:#6cd9f0;stroke:#333c42;stroke-width:1.2598;stroke-miterlimit:10;stroke-linecap:round;stroke-linejoin:round"/><path d="m146 39.7v7.9" stroke="#333c42" stroke-linecap="round" stroke-linejoin="round" stroke-miterlimit="10" stroke-width="1.2598"/></g></svg>