<svg fill="none" height="143" viewBox="0 0 192 143" width="192" xmlns="http://www.w3.org/2000/svg" xmlns:xlink="http://www.w3.org/1999/xlink"><clipPath id="a"><path d="m0 0h191.3v142.7h-191.3z"/></clipPath><g clip-path="url(#a)"><g stroke="#333c42" stroke-linecap="round" stroke-linejoin="round" stroke-miterlimit="10"><path d="m16.1 142h158" stroke-width="1.4263"/><path d="m180.6 142h10" stroke-width="1.4263"/><path d="m.700012 142h8.999998" stroke-width="1.4263"/><path d="m42.6 141.5h83.5c5.6 0 10.3-4.6 10.3-10.3v-120.2c0-5.59999-4.6-10.299988-10.3-10.299988h-83.5c-5.6.1-10.2 4.699998-10.2 10.299988v120.2c0 5.7 4.6 10.3 10.2 10.3z" fill="#b5ecf7" stroke-width="1.5"/><path d="m46 134.7h76.7c3.6 0 6.6-3 6.6-6.6v-113.8c0-3.6-3-6.59999-6.6-6.59999h-76.7c-3.6 0-6.6 2.99999-6.6 6.59999v113.8c0 3.7 3 6.6 6.6 6.6z" fill="#fff" stroke-width="1.5"/></g><path d="m55.7 115.5h48.2c2.7 0 4.9-1.5 4.9-3.4v-2.6h-58v2.6c0 1.9 2.2 3.4 4.9 3.4z" fill="#d4eef5"/><path d="m40.3 16.3h88.1v-2c0-3.2-2.6-5.8-5.8-5.8h-76.5c-3.2 0-5.8 2.6-5.8 5.8z" fill="#d4eef5"/><path d="m59.1 92.8h41.1" stroke="#333c42" stroke-linecap="round" stroke-linejoin="round" stroke-miterlimit="10" stroke-width="1.5"/><path d="m59.1 100.7h41.1" stroke="#333c42" stroke-linecap="round" stroke-linejoin="round" stroke-miterlimit="10" stroke-width="1.5"/><path d="m55.5 115.5h48.4c2.7 0 4.8-2.2 4.8-4.8v-72.8c0-2.7-2.2-4.8-4.8-4.8h-48.4c-2.7 0-4.8 2.2-4.8 4.8v72.8c0 2.6 2.1 4.8 4.8 4.8z" stroke="#333c42" stroke-linecap="round" stroke-linejoin="round" stroke-miterlimit="10" stroke-width="1.5687"/><path d="m153 110.6h-26.2c-3.2 0-5.9-2.7-5.9-5.9v-61.6c0-3.2 2.7-5.9 5.9-5.9h26.2c3.2 0 5.9 2.7 5.9 5.9v61.6c0 3.2-2.6 5.9-5.9 5.9z" style="fill:#fff;stroke:#333c42;stroke-width:1.5;stroke-miterlimit:10;stroke-linecap:round;stroke-linejoin:round"/><path d="m100.2 42.7h-41v41h41z" stroke="#333c42" stroke-dasharray="1 2" stroke-linecap="round" stroke-linejoin="round" stroke-miterlimit="10"/><path d="m94.4 59s-4.3-2.8-9.1 3.1-6 5.3-12.2 3.1-8.3 3.8-8.3 3.8v8.5h29.6c.3-.1 0-18.5 0-18.5z" fill="#6cd9f0"/><path d="m72.3 59.2c1.5 0 2.8-1.2 2.8-2.8 0-1.5-1.2-2.8-2.8-2.8-1.5 0-2.8 1.2-2.8 2.8s1.3 2.8 2.8 2.8z" fill="#6cd9f0"/><path d="m120.9 45.7h38" stroke="#333c42" stroke-linecap="round" stroke-linejoin="round" stroke-miterlimit="10" stroke-width="1.5"/><path d="m120.9 101.5h38" stroke="#333c42" stroke-linecap="round" stroke-linejoin="round" stroke-miterlimit="10" stroke-width="1.5"/><path d="m153.9 59h-28v28h28z" stroke="#333c42" stroke-dasharray=".5 .5" stroke-linecap="round" stroke-linejoin="round" stroke-miterlimit="10"/><path d="m150 70.1s-2.9-1.9-6.2 2.1-4.1 3.6-8.3 2.1-5.7 2.6-5.7 2.6v5.8h20.2c.2 0 0-12.6 0-12.6z" fill="#6cd9f0"/><path d="m134.8 70.3c1 0 1.9-.8 1.9-1.9 0-1-.8-1.9-1.9-1.9-1 0-1.9.8-1.9 1.9 0 1 .9 1.9 1.9 1.9z" fill="#6cd9f0"/></g></svg>