<svg fill="none" height="39" viewBox="0 0 116 39" width="116" xmlns="http://www.w3.org/2000/svg"><path d="m49.364 20.0002c0 5.4133-4.2605 9.4024-9.489 9.4024s-9.489-3.9891-9.489-9.4024c0-5.4516 4.2605-9.4024 9.489-9.4024s9.489 3.9508 9.489 9.4024zm-4.1539 0c0-3.3829-2.4692-5.6974-5.3351-5.6974s-5.3352 2.3145-5.3352 5.6974c0 3.3489 2.4693 5.6974 5.3352 5.6974s5.3351-2.3528 5.3351-5.6974z" fill="#ea4335"/><path d="m69.8346 20.0002c0 5.4133-4.2605 9.4024-9.489 9.4024s-9.489-3.9891-9.489-9.4024c0-5.4473 4.2605-9.4024 9.489-9.4024s9.489 3.9508 9.489 9.4024zm-4.1539 0c0-3.3829-2.4692-5.6974-5.3351-5.6974s-5.3352 2.3145-5.3352 5.6974c0 3.3489 2.4693 5.6974 5.3352 5.6974s5.3351-2.3528 5.3351-5.6974z" fill="#fbbc05"/><path d="m89.4522 11.1658v16.8802c0 6.9437-4.1197 9.7797-8.99 9.7797-4.5845 0-7.3438-3.0479-8.3844-5.5405l3.6165-1.4964c.6439 1.5303 2.2219 3.3362 4.7637 3.3362 3.1175 0 5.0494-1.9119 5.0494-5.5109v-1.3523h-.145c-.9297 1.1403-2.7209 2.1365-4.9812 2.1365-4.7296 0-9.0625-4.095-9.0625-9.3642 0-5.3074 4.3329-9.4363 9.0625-9.4363 2.256 0 4.0472.9962 4.9812 2.1026h.145v-1.5303h3.9448zm-3.6506 8.8683c0-3.3108-2.2219-5.7313-5.0494-5.7313-2.8659 0-5.2669 2.4205-5.2669 5.7313 0 3.2768 2.401 5.6635 5.2669 5.6635 2.8275 0 5.0494-2.3867 5.0494-5.6635z" fill="#4285f4"/><path d="m95.9559 1.27173v27.55437h-4.0515v-27.55437z" fill="#34a853"/><path d="m111.744 23.0948 3.224 2.1365c-1.041 1.5304-3.548 4.1671-7.881 4.1671-5.374 0-9.3869-4.1289-9.3869-9.4024 0-5.5914 4.0469-9.4024 8.9219-9.4024 4.909 0 7.31 3.8831 8.094 5.9814l.431 1.0683-12.645 5.2057c.968 1.8864 2.474 2.8486 4.585 2.8486 2.115 0 3.582-1.0343 4.657-2.6028zm-9.924-3.3828 8.453-3.4888c-.465-1.1742-1.864-1.9924-3.51-1.9924-2.111 0-5.05 1.8525-4.943 5.4812z" fill="#ea4335"/><path d="m15.0502 17.5542v-3.989h13.5233c.1322.6952.2005 1.5176.2005 2.4078 0 2.9929-.8231 6.6936-3.4758 9.3304-2.5801 2.6706-5.8767 4.095-10.2438 4.095-8.0944 0-14.900866-6.5537-14.900866-14.5996 0-8.04588 6.806466-14.599581 14.900866-14.599581 4.478 0 7.668 1.746521 10.0647 4.022931l-2.8317 2.81479c-1.7187-1.60239-4.0472-2.8487-7.2372-2.8487-5.91093 0-10.53387 4.73511-10.53387 10.61056 0 5.8754 4.62294 10.6105 10.53387 10.6105 3.8339 0 6.0175-1.5303 7.4163-2.9207 1.1344-1.1276 1.8807-2.7385 2.175-4.9386z" fill="#4285f4"/></svg>