<svg fill="none" height="25" viewBox="0 0 118 25" width="118" xmlns="http://www.w3.org/2000/svg" xmlns:xlink="http://www.w3.org/1999/xlink"><clipPath id="a"><path d="m0 0h118v25h-118z"/></clipPath><g clip-path="url(#a)" fill="#000"><path d="m53.9862 18.851c.0178-.4669-.0683-.932-.2521-1.3617-.1837-.4296-.4605-.8132-.8104-1.123-.7526-.6391-1.7174-.9733-2.7043-.9366h-3.8241v9.3901h2.4584v-7.2194h1.3876c.1672-.0108.3348.0142.4916.0732s.2993.1507.4179.269.2107.2605.27.4171c.0594.1566.0847.3241.0743.4913.007.1677-.0199.3352-.079.4923-.0592.1572-.1494.3008-.2652.4224-.1192.118-.2616.2099-.4182.2701-.1565.0601-.3239.0872-.4914.0794h-1.3876l3.1795 4.71h2.7315l-2.3163-3.1455c.4889-.2877.8903-.703 1.1612-1.2013.2709-.4982.4011-1.0608.3766-1.6274z"/><path d="m97.4233 18.8074c.0177-.4667-.0682-.9315-.2514-1.3611s-.4593-.8133-.8084-1.1236c-.7543-.6382-1.7195-.9721-2.707-.9366h-3.8242v9.401l2.4584.0136v-7.2439h1.3904c.1671-.0108.3346.0141.4913.0731s.299.1508.4174.2691c.1184.1184.2102.2606.2692.4173.059.1566.084.324.0731.4911.0071.1675-.0195.3347-.0781.4918-.0587.1571-.1482.3009-.2633.4229-.1194.1177-.2618.2095-.4183.2696s-.3238.0873-.4913.0799h-1.3904l3.1714 4.7155h2.7315l-2.3136-3.1483c.4899-.2877.8923-.7031 1.1642-1.2019s.4029-1.062.3791-1.6295z"/><path d="m58.4796 20.9317h2.9446v-1.9523h-2.9446v-1.439h3.9116v-2.1106h-6.2689v9.3982h6.441v-2.1106h-4.0837z"/><path d="m75.0274 21.0163h2.9446v-1.9523h-2.9446v-1.439h3.9115v-2.1106h-6.2689v9.3955h6.441v-2.1079h-4.0836z"/><path d="m68.6574 19.313-1.0926-.4615c-.2392-.0843-.4626-.208-.6611-.3658-.0649-.0601-.1162-.1333-.1506-.2148-.0344-.0814-.051-.1692-.0488-.2576 0-.4423.306-.669.9151-.669.3195-.0074.6338.0821.9014.2567.2707.1985.5031.4446.6856.7263l1.5652-1.1987c-.6337-1.2178-1.7045-1.8348-3.1823-1.8348-.8524-.0362-1.6899.2319-2.3627.7563-.2956.2393-.5315.5438-.6893.8897-.1579.3458-.2333.7236-.2203 1.1035 0 1.1796.8003 2.1243 2.3737 2.8124l.9806.4341c.2751.1076.5372.2459.7812.4123.0765.0638.1366.1449.1756.2365.0389.0916.0555.1912.0484.2905 0 .4997-.3496.7536-1.0434.7536-.8195 0-1.527-.4041-2.1334-1.2014l-1.5815 1.1987c.3416.6215.8495 1.1358 1.4668 1.4853.6854.386 1.4615.582 2.2481.568.886.0322 1.7556-.246 2.4583-.7864.3154-.2544.5668-.579.7342-.9478.1675-.3689.2462-.7718.2301-1.1765.0198-.5999-.188-1.1851-.5818-1.6383-.5135-.5173-1.1333-.917-1.8165-1.1713z"/><path d="m83.3394 15.3314-2.9473 9.5702h2.4201l.4453-1.5372 2.6987.0382.418 1.499h2.3354l-3.0265-9.5565zm.2978 6.007.0218-.0819.8686-3.1127.937 3.1946z"/><path d="m103.801 17.4148c1.038 0 1.88.516 2.503 1.5317l1.789-1.215c-.405-.7497-1.006-1.3748-1.74-1.8076-.774-.4495-1.656-.6798-2.552-.6662-.665-.0154-1.327.1006-1.948.3414-.62.2409-1.187.6018-1.668 1.0621-.4649.4507-.8343.9901-1.0866 1.5863-.2523.5961-.3823 1.2368-.3823 1.8841 0 .6472.13 1.2879.3823 1.8841.2523.5961.6217 1.1355 1.0866 1.5863.481.4593 1.048.8192 1.669 1.0591.62.2399 1.282.355 1.947.3389.895.0127 1.777-.2165 2.552-.6635.734-.4328 1.335-1.0579 1.74-1.8076l-1.789-1.2151c-.623 1.0158-1.465 1.5318-2.503 1.5318-.352.0119-.703-.0476-1.031-.1747-.329-.1272-.628-.3194-.881-.5652-.249-.2607-.442-.5689-.569-.9063s-.184-.6969-.168-1.0569c-.016-.3625.041-.7246.168-1.0646.126-.3401.32-.6512.569-.915.251-.2484.55-.4429.879-.5716s.681-.1887 1.033-.1765z"/><path d="m115.558 18.8674h-3.603v-3.4786h-2.357v9.3982h2.357v-3.809h3.603v3.809h2.357v-9.3982h-2.357z"/><path d="m102.938 12.8495c1.355.0282 2.665-.4814 3.644-1.4171.483-.4446.866-.9864 1.124-1.58977.258-.60338.385-1.25458.373-1.91066.012-.65608-.115-1.30729-.373-1.91067s-.641-1.14522-1.124-1.58977c-.98-.9347-2.29-1.44411-3.644-1.4171-.668-.01404-1.332.10392-1.955.34709-.622.24318-1.1906.6068-1.6722 1.07001-.4787.44698-.8579.98966-1.1129 1.59273-.2551.60308-.3803 1.25307-.3676 1.90771-.0126.65502.1127 1.30537.3677 1.90888.2551.60345.6342 1.14665 1.1128 1.59425.4817.4629 1.0502.8261 1.6722 1.0688.623.2427 1.287.3602 1.955.3456zm-1.923-6.90257c.524-.48967 1.214-.76208 1.931-.76208.718 0 1.408.27241 1.932.76208.254.26169.453.5723.584.91304.131.34073.192.7045.178 1.06927.015.36618-.045.73163-.176 1.07393-.131.34229-.33.65419-.586.91656-.527.48427-1.216.75317-1.932.75317-.715 0-1.404-.2689-1.931-.75317-.252-.26433-.448-.57689-.577-.91892-.129-.34204-.187-.70651-.171-1.07157-.014-.3636.045-.72627.174-1.06668.128-.34042.324-.65173.574-.91563z"/><path d="m49.8835 3.01437c-.6682-.01404-1.3326.10392-1.9551.3471-.6225.24317-1.1908.60679-1.6724 1.07-.4787.44699-.8579.98966-1.1129 1.59274-.2551.60307-.3803 1.25306-.3676 1.9077-.0126.65502.1127 1.30538.3677 1.90888.2551.60351.6342 1.14671 1.1128 1.59431.9918.9102 2.2892 1.4153 3.6357 1.4153 1.3464 0 2.6438-.5051 3.6356-1.4153.4829-.4446.866-.9864 1.124-1.58979.258-.60338.3851-1.25459.3729-1.91067.0143-.65551-.1104-1.30662-.3661-1.91044s-.6364-1.14664-1.1171-1.59273c-.9832-.93807-2.2987-1.44774-3.6575-1.4171zm1.9394 6.90804c-.5265.48429-1.2158.75309-1.9312.75309-.7155 0-1.4048-.2688-1.9312-.75309-.2524-.26434-.4488-.5769-.5774-.91893-.1286-.34204-.1868-.70651-.1711-1.07157-.014-.36405.045-.72723.1735-1.06815.1285-.34091.324-.65266.575-.91689.5237-.48967 1.214-.76208 1.9312-.76208.7171 0 1.4074.27241 1.9312.76208.2545.26169.4534.57231.5844.91304.1309.34073.1914.7045.1777 1.06927.0157.36663-.0438.73261-.1749 1.0754-.131.34278-.3309.65514-.5872.91783z"/><path d="m91.4275 12.8494c1.3508.0262 2.657-.4833 3.633-1.4171.4829-.4445.8659-.9864 1.1239-1.58973.2581-.60338.3852-1.25459.373-1.91067.0122-.65608-.1149-1.30728-.373-1.91066-.258-.60338-.641-1.14522-1.1239-1.58977-.9912-.91145-2.2889-1.41731-3.6357-1.41731s-2.6445.50586-3.6357 1.41731c-.4762.44826-.8531.99143-1.1062 1.59438-.2532.60296-.3769 1.2523-.3633 1.90605-.0121.65521.1137 1.30563.3692 1.90912.2555.60348.635 1.14658 1.114 1.59408.4812.4627 1.0492.8259 1.6712 1.0686.6221.2427 1.2859.3602 1.9535.3457zm-1.9257-6.90253c.5245-.48926 1.2152-.76135 1.9326-.76135s1.408.27209 1.9325.76135c.2546.26169.4534.5723.5844.91303.131.34074.1915.7045.1777 1.06927.0154.36618-.0443.73164-.1753 1.07393-.1311.34229-.3308.6542-.5868.91657-.5268.48453-1.2166.75343-1.9325.75343s-1.4057-.2689-1.9326-.75343c-.2516-.26488-.4475-.57752-.576-.91942-.1286-.34191-.1872-.70612-.1724-1.07108-.0137-.3636.0455-.72626.174-1.06668s.3238-.65172.5744-.91562z"/><path d="m64.8988 3.18921h-2.3792v5.66022c.0095.24383-.0304.48706-.1172.71512s-.2188.43625-.388.61215c-.1692.1758-.3722.3157-.5969.4113-.2246.0955-.4662.1448-.7103.1448s-.4857-.0493-.7103-.1448c-.2246-.0956-.4276-.2355-.5968-.4113-.1693-.1759-.3012-.38409-.3881-.61215-.0868-.22806-.1266-.47129-.1172-.71512v-5.66022h-2.3791v5.4609c-.0229.55978.0698 1.11827.2724 1.64069.2025.5223.5106.9974.9049 1.3956.8274.742 1.8999 1.1524 3.0115 1.1524s2.1841-.4104 3.0115-1.1524c.3954-.3976.7046-.8725.9081-1.3949.2035-.52243.297-1.0812.2747-1.64139z"/><path d="m74.604 3.18921h-8.1483v2.12975h2.8846v7.35584h2.3791v-7.35584h2.8846z"/><path d="m84.8227 7.90194c.0251-.64352-.0932-1.28457-.3464-1.87675-.2533-.59218-.635-1.12068-1.1177-1.54724-1.0361-.87626-2.3613-1.33568-3.7176-1.28877h-3.2779v9.48562h3.2779c1.3606.0443 2.687-.4312 3.7094-1.3298.4815-.432.8627-.964 1.117-1.55877.2544-.59473.3756-1.23783.3553-1.88429zm-3.215 1.93589c-.5449.48097-1.254.73417-1.9804.70717h-.8959v-5.21242h.8959c.72-.0295 1.426.20446 1.9858.65804.2639.24032.4704.53686.6042.86769s.1915.6875.1689 1.04363c.0171.35966-.0436.71878-.1779 1.05286-.1344.33409-.3392.63528-.6006.88303z"/><path d="m112.045 7.92376v-2.53932h1.402c.168-.01078.337.01444.495.07398.159.05955.302.15205.422.27137.119.11932.212.26272.272.42067.06.15796.086.32685.075.49545.009.17186-.017.34368-.077.5051s-.151.30911-.27.43418c-.12.11895-.264.21166-.422.27229s-.326.08784-.495.07993h-1.402l3.21 4.75649h2.751l-2.32-3.1974c.493-.29158.897-.71164 1.17-1.21522.272-.50357.402-1.0717.376-1.64356.018-.47093-.068-.93997-.254-1.37338-.185-.4334-.464-.82041-.816-1.13317-.761-.64526-1.735-.98233-2.732-.94474h-3.862v9.48557l2.477.0137z"/><path d="m40.4486 11.3204c0-2.50659-.8877-4.54351-2.6414-6.05072-1.7536-1.50721-4.0235-2.27992-6.7387-2.27992h-9.5331v3.58235c-1.0739-2.33846-2.9155-4.23959-5.219-5.38795-2.3036-1.1483519-4.9307-1.474902-7.44547-.925466s-4.76602 1.941826-6.38022 3.946156c-1.614196 2.00432-2.49431107 4.50008-2.49431107 7.07315 0 2.5731.88011507 5.0689 2.49431107 7.0732 1.6142 2.0044 3.86545 3.3967 6.38022 3.9462 2.51477.5494 5.14187.2229 7.44547-.9255 2.3035-1.1483 4.1451-3.0495 5.219-5.3879v9.0105l6.1105-.0547v-16.66662h3.4581c.4146-.01891.8287.04527 1.2181.18876.3893.14349.746.36339 1.0491.64676.2872.28992.5114.63602.6585 1.0166.1471.3806.214.7874.1965 1.1951.0173.41-.0496.8193-.1966 1.2025-.1471.3832-.3711.7322-.6584 1.0255-.3005.288-.6565.512-1.0462.6584-.3897.1465-.8051.2123-1.221.1935h-3.4581l7.8996 10.5668h6.4137l-5.3265-6.7551c2.5321-1.5318 3.8159-3.8526 3.8159-6.8916zm-29.1647 5.4417c-1.0856.0006-2.14691-.3207-3.04978-.9233-.90286-.6025-1.60665-1.4592-2.02234-2.4617-.41569-1.0024-.52459-2.1056-.31293-3.1699.21165-1.06435.73436-2.04202 1.50199-2.80934s1.74569-1.28982 2.81046-1.50139c1.0647-.21157 2.1684-.10271 3.1712.31281 1.0029.41552 1.8599 1.11903 2.4627 2.02153s.9242 1.96339.9237 3.04859c0 1.4541-.5779 2.8487-1.6065 3.8769s-2.4238 1.6058-3.8785 1.6058z"/></g></svg>