<svg enable-background="new 0 0 500 98.4" height="98.4" viewBox="0 0 500 98.4" width="500" xmlns="http://www.w3.org/2000/svg"><path d="m443.4 97.5c31.1 0 51.6-21.9 51.6-48 0-25-18.4-48.5-52.1-48.5-29.6 0-50.5 21.4-50.5 48-.5 27 20.4 48.5 51 48.5zm-35.7-48.5c0-18.9 15.3-34.7 35.7-34.7s35.7 15.8 35.7 34.7-15.8 34.7-35.7 34.7c-20.9 0-35.7-15.3-35.7-34.7z"/><path d="m270.9 17.8v-13.8h-46.4v13.8h15.3v63.8h-15.3v13.8h46.4v-13.8h-15.3v-63.8zm-160.2-13.8v13.8h15.8v63.8h-15.8v13.8h103.6v-31.1h-15.8v17.4h-56.1v-24.6h25v9.2h15.8v-33.7h-15.8v10.7h-25v-25.5h56.1v18.4h15.8v-32.2zm-23 65.4c0 7.7-7.1 14.8-29.1 14.8-10.2 0-35.2-4.1-35.2-14.8v-6.1h-16.4v31.6h15.8v-5.6c4.6 2.6 18.4 8.2 36.2 8.2s31.1-3.6 36.7-10.7c4.1-5.1 7.1-10.7 7.1-17.9 0-12.8-9.2-22.5-20.9-25-2-.5-10.2-1.5-14.8-1.5-13.3.5-26-.5-35.7-1.5-6.1-1-10.7-4.1-10.7-11.2 0-3.1 1-6.1 3.1-7.7 5.1-5.1 15.3-7.1 27.1-6.6 11.7.5 19.9 3.6 26.5 6.6 5.6 2.6 7.7 5.6 7.7 10.2v4.1h15.9v-32.3h-15.9v6.6c-5.1-3-18.8-8.6-36.7-8.6-18.9 0-29.1 3.6-35.2 9.7-4.6 4.1-8.2 11.2-8.2 18.4 0 10.7 6.1 18.4 14.8 21.9 9.7 3.6 29.6 4.1 39.3 4.6 9.2.5 17.4 0 23 3.1 3.5 1.5 5.6 5.6 5.6 9.7zm259.8 26h47v-13.8h-13.3l-33.2-39.8 31.6-24h13.3v-13.8h-45.4v13.8h9.7l-45.4 35.2v-35.2h15.3v-13.8h-47v13.8h15.3v63.8h-15.3v13.8h47v-13.8h-15.3v-11.7l23.5-18.4 25 30.1h-12.8z"/></svg>