<svg fill="none" height="48" viewBox="0 0 116 48" width="116" xmlns="http://www.w3.org/2000/svg" xmlns:xlink="http://www.w3.org/1999/xlink"><clipPath id="a"><path d="m0 0h116v48h-116z"/></clipPath><g clip-path="url(#a)"><path d="m48.6847 12.5559c0-3.00604-.5169-5.89746-1.4031-8.61557l.0172-.04004c.714-.34053 2.1664-1.07539 3.6283-1.84747 1.5847-.83716 3.3237-1.629742 4.208-1.803525 1.1486-.2257135 2.2192.116064 2.8617 1.083835.6417-.968241 1.7116-1.3095485 2.8602-1.083835.885.173783 2.624.965735 4.2088 1.803525 1.462.77224 2.9144 1.50632 3.6255 1.84356l.0181.04004c-.8841 2.72077-1.4011 5.61344-1.4011 8.61948 0 2.8775.5598 5.6311 1.3752 8.2482l-.0207.0407c-4.8722 1.7727-7.8363 3.9981-10.6372 6.8651h-.0489c-2.8054-2.867-5.7406-5.0819-10.6449-6.8612l-.0201-.0407c.8141-2.621 1.373-5.3744 1.373-8.2521z" fill="#fff"/><path d="m48.6895 12.5435c0-3.00609-.5168-5.89751-1.403-8.61562l.0172-.04004c.7139-.34053 2.1663-1.07539 3.6283-1.84748 1.5847-.83715 3.3237-1.629734 4.208-1.803516 1.1486-.2257137 2.2192.116064 2.8617 1.083836.6416-.968242 1.7116-1.3095497 2.8602-1.083836.8849.173782 2.6239.965736 4.2088 1.803516 1.4619.77225 2.9144 1.50633 3.6254 1.84357l.0182.04004c-.8842 2.72077-1.4012 5.61344-1.4012 8.61953 0 2.8775.5599 5.6311 1.3752 8.2482l-.0207.0406c-4.8721 1.7727-7.8363 3.9981-10.6371 6.8651h-.0489c-2.8054-2.867-5.7407-5.0819-10.6449-6.8612l-.0201-.0406c.8141-2.621 1.3729-5.3745 1.3729-8.2521z" stroke="#900027" stroke-miterlimit="3.864"/><path d="m63.6501 3.45309c-1.228-.60034-2.4976-1.17315-3.1802-1.30689-1.297-.25512-2.2858.75973-2.4429 1.37383l-.0327.12717-.0328-.12717c-.1576-.6141-1.1241-1.62911-2.4201-1.37383-.6838.13452-1.952.7067-3.1803 1.30751-1.2068.58986-2.3687 1.20397-2.8869 1.44861.7018 2.2648 1.0785 4.62924 1.0913 7.13678h1.7383v-1.2886h3.9407v-3.87073h3.4439v3.87073h3.9396v1.288h1.8192c.0128-2.50694.3881-4.87201 1.0907-7.13681-.5197-.24417-1.681-.85812-2.8878-1.4486zm-5.6551 21.71031c2.3649-2.1932 5.3071-4.321 8.5074-5.4101-.32-1.0857-.6417-2.5928-.8281-4.0848-.1716-1.3679-.2143-2.625-.2317-2.8218h-1.8144v1.2878h-3.9394v3.8709h-3.444v-3.8709h-3.941v-1.2878h-1.7456c-.059 2.31-.4548 4.8562-1.062 6.9072 3.1996 1.0885 6.1334 3.2161 8.4988 5.4095z" fill="#900027"/><path d="m6.50205 44.8633 2.67123-7.1145c.16081-.4744-.06481-.8221-.93367-.9487v-.6317h3.99089v.6317c-.7079.0316-1.2869.1582-1.6088 1.0118l-3.95868 10.1824h-.8695l-4.40959-10.2453c-.386107-.8857-1.061994-.9171-1.38377741-.9171v-.6634h4.60272741v.6318c-.7399.1267-.93367.5375-.83686.8221zm10.97505 1.2964c0 .3799.1936.5695.5795.7275.2252.0945.5471.1903.7729.221v.6011h-4.7316v-.6011c.1609-.0307.6759-.1581.8369-.2525.2898-.1581.5148-.3161.5148-.7275v-8.4108c0-.6324-.8047-.8857-1.3518-.9487v-.6003h4.7317v.6003c-.6438.1267-1.3523.2526-1.3523.9803v8.4107zm12.392-9.9915.064 3.2246h-.611c-.161-.6324-.3218-1.1699-.6118-1.5489-.4187-.5379-1.0304-.7907-1.9313-.7907-2.9933 0-3.2831 2.9407-3.2831 4.8373 0 1.929.3541 4.933 3.5081 4.8701.9656-.0314 2.4142-.5695 3.3799-1.8021l.0968-.1267.6431.4743-.032.0629c-1.0939 1.8981-3.1863 2.5936-4.5059 2.5936-3.7337 0-5.6332-3.2575-5.6332-5.977 0-2.2129 1.3845-6.039 4.9574-6.039 1.3837 0 2.4135.3161 3.283.7583l.129-.5367zm7.9175 1.2329v8.6649c0 .41.2898.7262.7404.8842.2253.0951.4823.1273.7722.1582v.6011h-4.9246v-.6011c.2898-.0307.515-.0629.8696-.1896.3541-.1267.6431-.4429.6431-.8857l-.032-8.632h-1.5446c-.9336 0-1.2236.3798-1.3844.7906-.1282.3478-.161.6954-.161 1.0431l-.6757-.0308v-3.0356h9.4951v3.0664h-.7079c-.032-.4742-.0968-.885-.258-1.2013-.2248-.4422-.5787-.6324-1.0296-.6324zm16.4151 4.6475c-.064 3.0357-2.1249 5.9456-5.4714 5.9456-3.4126 0-5.6002-2.6565-5.665-6.0084-.0634-3.1301 2.1243-6.0713 5.633-6.0713 3.4111-.0002 5.5676 3.004 5.5034 6.1341zm-8.6583-.1895c-.0633 2.3716.7413 4.933 3.1221 4.933 2.4782 0 3.09-2.6243 3.0252-4.9959-.0634-2.3081-.4501-4.7112-3.0252-4.7112-2.6712-.0002-3.0893 2.4345-3.122 4.7741zm22.0162 5.8502h-2.865l-2.543-4.332h-2.0282v2.7509c0 .4429.3226.8535 1.4492.9802l.0328.6011h-4.9581v-.6318c.3225 0 .6124-.0637.9015-.1904.2892-.1267.5796-.4428.5796-.7907v-8.1896c0-.7591-.8045-1.0438-1.6092-1.1383v-.6003h5.6324c1.9631 0 4.3455 1.2957 4.3455 3.5094 0 1.1389-.5149 2.7824-2.4142 3.3834l1.9313 3.1302c.322.5065.7407.8542 1.5126.9171zm-6.1801-10.3719c-.0962 0-.5471.0323-1.2228.0952v4.9009h1.9947c1.4806-.0945 2.0921-.8536 2.0921-2.5922 0-2.15-1.3194-2.4039-2.864-2.4039zm11.9733 8.8223c0 .3799.1932.5695.5791.7275.2258.0945.5471.1903.7729.221v.6011h-4.7324v-.6011c.1624-.0307.6766-.1581.8375-.2525.2898-.1581.5148-.3161.5148-.7275v-8.4108c0-.6324-.8041-.8857-1.3523-.9487v-.6003h4.7324v.6003c-.6446.1267-1.3518.2526-1.3518.9803v8.4107zm14.9985 1.5496h-.4506l-7.4349-8.5055v6.9244c0 .2847.1931.5373.5156.7591.3213.1904.579.1904.8688.2211v.6011h-3.9595v-.6011c.193-.0307.4506-.0629.6759-.1582.3866-.1267.6764-.4106.6764-.822v-8.2528c-.2898-.5696-.933-1.1069-1.6742-1.1069v-.6003h3.057l6.4701 7.5568v-5.9762c0-.6324-.7722-.9803-1.351-.9803v-.6003h3.9904v.6003c-.6751.0631-1.3837.2527-1.3837.9487v9.9921zm14.6447-5.6921c-.065 3.0356-2.123 5.9455-5.5032 5.9455-3.3798 0-5.6004-2.6565-5.6652-6.0084-.0312-3.1301 2.1564-6.0712 5.6332-6.0712 3.4442-.0002 5.6002 3.004 5.5352 6.1341zm-8.6902-.1889c-.032 2.371.7399 4.9323 3.1548 4.9323 2.4467 0 3.0894-2.6248 3.0254-4.9966-.064-2.3074-.482-4.7106-3.0254-4.7106-2.6712-.0322-3.1228 2.4347-3.1548 4.7749zm16.8332-.4114 3.027 4.4581c.289.4428.643.7275.965.9171.161.0951.58.3161.869.3161v.6011h-5.021v-.6011c.032 0 .482-.0629.772-.1896.289-.1267.386-.4742.129-.7905l-2.028-3.0042-2.317 3.0671c-.419.4742-.064.8542.515.917v.6012h-3.734v-.6318c.869-.1273 1.191-.4751 1.576-.9809l3.155-4.1746-2.799-4.078c-.451-.664-1.16-1.0754-1.835-1.0754v-.6003h5.118v.6003c-.579.0631-1.417.2527-.998.9173l1.77 2.5928 1.995-2.5928c.419-.5059.097-.8858-.547-.9173v-.6003h3.767v.6003c-.612.0315-.935.2847-1.289.6326z" fill="#231f20"/></g></svg>